<svg width="6275" height="907" viewBox="0 0 6275 907" fill="none" xmlns="http://www.w3.org/2000/svg">
<g clip-path="url(#clip0_2934_14583)">
<path d="M1114.05 416.724C1099.01 392.94 1079.03 374.674 1054.11 361.917C1029.18 349.175 1001.49 342.797 971.045 342.797C938.315 342.797 909.11 349.646 883.42 363.344C857.731 377.05 837.55 395.986 822.904 420.145C808.249 444.319 800.93 472.01 800.93 503.209C800.93 534.408 808.44 560.967 823.478 585.133C838.507 609.308 859.628 628.332 886.841 642.221C914.053 656.118 946.113 663.055 983.037 663.055C1012.34 663.055 1037.84 658.774 1059.53 650.21C1077.3 643.202 1092.63 633.698 1105.54 621.714C1110.26 617.337 1110.53 609.962 1106.11 605.274L1064.62 561.262C1060.58 556.98 1053.97 556.334 1049.25 559.85C1041.26 565.814 1033.27 570.431 1025.28 573.708C1014.62 578.085 1001.49 580.27 985.891 580.27C969.522 580.27 955.442 577.328 943.649 571.42C931.841 565.527 922.808 557.06 916.533 546.017C913.83 541.265 911.701 536.13 910.17 530.605H1125.44C1130.82 530.605 1135.29 526.467 1135.71 521.101L1136.03 516.907C1136.41 511.964 1136.6 507.586 1136.6 503.775C1136.6 469.522 1129.08 440.508 1114.05 416.716V416.724ZM908.44 473.525C909.676 466.15 911.805 459.396 914.818 453.257C919.953 442.796 927.464 434.704 937.367 428.995C947.261 423.286 958.862 420.432 972.193 420.432C985.524 420.432 996.352 423.286 1005.87 428.995C1015.38 434.704 1022.9 442.796 1028.42 453.257C1031.68 459.452 1033.91 466.206 1035.11 473.525H908.44Z" fill="#34B298"/>
<path d="M1394.07 352.851V429.935C1394.07 435.644 1389.21 440.165 1383.52 439.718C1382.63 439.647 1381.76 439.591 1380.93 439.551C1377.12 439.36 1373.32 439.264 1369.52 439.264C1347.44 439.264 1329.56 445.26 1315.86 457.244C1302.15 469.235 1295.3 488.745 1295.3 515.759V645.554C1295.3 652.379 1289.77 657.912 1282.94 657.912H1199.19C1192.36 657.912 1186.83 652.379 1186.83 645.554V360.274C1186.83 353.449 1192.36 347.915 1199.19 347.915H1278.38C1285.2 347.915 1290.73 353.449 1290.73 360.274V385.326C1298.68 375.287 1308.29 367.003 1319.57 360.473C1337.48 350.092 1358.87 344.28 1383.73 343.036C1389.35 342.757 1394.07 347.222 1394.07 352.843V352.851Z" fill="#34B298"/>
<path d="M1593.88 663.055C1559.25 663.055 1528.61 656.206 1501.97 642.5C1475.32 628.802 1454.39 609.874 1439.17 585.699C1423.94 561.533 1416.34 534.033 1416.34 503.209C1416.34 472.385 1423.94 444.407 1439.17 420.432C1454.39 396.456 1475.32 377.528 1501.97 363.631C1528.61 349.742 1559.24 342.797 1593.88 342.797C1628.53 342.797 1659.15 350.316 1684.65 365.345C1705.71 377.767 1721.72 394.152 1732.65 414.492C1736.48 421.628 1733.72 430.526 1726.52 434.249L1667.24 464.89C1660.66 468.295 1652.59 466.166 1648.47 459.994C1642.57 451.16 1635.79 444.351 1628.13 439.559C1617.47 432.902 1605.87 429.569 1593.3 429.569C1580.73 429.569 1569.41 432.423 1559.33 438.132C1549.25 443.841 1541.16 452.029 1535.07 462.681C1528.98 473.342 1525.94 486.856 1525.94 503.217C1525.94 519.578 1528.97 532.144 1535.07 543.179C1541.16 554.221 1549.25 562.585 1559.33 568.294C1569.41 574.003 1580.74 576.857 1593.3 576.857C1605.86 576.857 1617.47 573.532 1628.13 566.867C1635.81 562.067 1642.61 555.234 1648.51 546.368C1652.61 540.22 1660.64 538.076 1667.22 541.432L1726.41 571.635C1733.66 575.334 1736.47 584.264 1732.62 591.424C1721.68 611.74 1705.69 628.101 1684.65 640.507C1659.14 655.544 1628.89 663.055 1593.88 663.055Z" fill="#34B298"/>
<path d="M1778.84 646.876V245.355C1778.84 239.264 1783.78 234.32 1789.87 234.32H1876.27C1882.36 234.32 1887.3 239.264 1887.3 245.355V646.876C1887.3 652.967 1882.36 657.911 1876.27 657.911H1789.87C1783.78 657.911 1778.84 652.967 1778.84 646.876Z" fill="#34B298"/>
<path d="M2251.24 416.724C2236.19 392.94 2216.21 374.674 2191.3 361.917C2166.37 349.175 2138.67 342.797 2108.23 342.797C2075.49 342.797 2046.29 349.646 2020.6 363.344C1994.91 377.05 1974.74 395.986 1960.09 420.145C1945.44 444.319 1938.11 472.01 1938.11 503.209C1938.11 534.408 1945.62 560.967 1960.66 585.133C1975.69 609.308 1996.81 628.332 2024.03 642.221C2051.23 656.118 2083.3 663.055 2120.22 663.055C2149.53 663.055 2175.02 658.774 2196.72 650.21C2214.99 643.003 2230.68 633.164 2243.82 620.702C2247.91 616.811 2248.05 610.313 2244.18 606.198L2200.98 560.385C2197.36 556.55 2191.45 556.079 2187.25 559.26C2178.99 565.511 2170.73 570.335 2162.47 573.724C2151.81 578.101 2138.68 580.286 2123.08 580.286C2106.71 580.286 2092.63 577.344 2080.84 571.435C2069.04 565.543 2060 557.076 2053.72 546.033C2051.02 541.281 2048.9 536.146 2047.36 530.621H2262.62C2267.98 530.621 2272.45 526.507 2272.89 521.157C2273 519.777 2273.11 518.366 2273.22 516.923C2273.6 511.98 2273.8 507.602 2273.8 503.791C2273.8 469.538 2266.28 440.524 2251.25 416.732L2251.24 416.724ZM2045.63 473.525C2046.86 466.15 2048.99 459.396 2052 453.257C2057.14 442.796 2064.65 434.704 2074.55 428.995C2084.44 423.286 2096.05 420.432 2109.37 420.432C2122.7 420.432 2133.54 423.286 2143.05 428.995C2152.56 434.704 2160.08 442.796 2165.61 453.257C2168.87 459.452 2171.09 466.206 2172.29 473.525H2045.63Z" fill="#34B298"/>
<path d="M2710.5 253.24V374.983C2705 369.282 2698.9 364.354 2692.23 360.2C2673.58 348.599 2651.13 342.795 2624.87 342.795C2597.09 342.795 2571.58 349.357 2548.37 362.489C2525.15 375.62 2506.79 394.078 2493.28 417.862C2479.77 441.654 2473.02 470.095 2473.02 503.207C2473.02 536.32 2479.77 564.202 2493.28 587.986C2506.79 611.778 2525.15 630.228 2548.37 643.359C2571.58 656.491 2597.09 663.053 2624.87 663.053C2652.66 663.053 2675.77 657.344 2694.23 645.927C2702.28 640.952 2709.4 634.828 2715.64 627.549V639.006C2715.64 649.451 2724.11 657.918 2734.55 657.918H2800.05C2810.5 657.918 2818.96 649.451 2818.96 639.006V253.248C2818.96 242.803 2810.5 234.336 2800.05 234.336H2729.42C2718.97 234.336 2710.5 242.803 2710.5 253.248V253.24ZM2703.65 542.882C2697.94 554.116 2690.24 562.583 2680.53 568.292C2670.82 574.001 2659.88 576.855 2647.71 576.855C2635.53 576.855 2624.01 574.001 2614.31 568.292C2604.6 562.583 2596.89 554.116 2591.19 542.882C2585.48 531.663 2582.62 518.436 2582.62 503.207C2582.62 486.846 2585.48 473.34 2591.19 462.68C2596.89 452.027 2604.6 443.839 2614.31 438.13C2624.01 432.421 2635.14 429.567 2647.71 429.567C2660.27 429.567 2670.82 432.421 2680.53 438.13C2690.24 443.839 2697.94 452.027 2703.65 462.68C2709.36 473.34 2712.21 486.846 2712.21 503.207C2712.21 518.436 2709.36 531.663 2703.65 542.882Z" fill="#34B298"/>
<path d="M3182.33 416.724C3167.3 392.94 3147.32 374.674 3122.39 361.917C3097.46 349.175 3069.77 342.797 3039.33 342.797C3006.59 342.797 2977.38 349.646 2951.69 363.344C2926.01 377.05 2905.83 395.986 2891.19 420.145C2876.53 444.319 2869.2 472.01 2869.2 503.209C2869.2 534.408 2876.71 560.967 2891.75 585.133C2906.79 609.308 2927.91 628.332 2955.12 642.221C2982.33 656.118 3014.39 663.055 3051.32 663.055C3080.62 663.055 3106.12 658.774 3127.81 650.21C3146.08 643.003 3161.77 633.164 3174.91 620.702C3179.01 616.811 3179.14 610.313 3175.27 606.198L3132.07 560.377C3128.46 556.542 3122.54 556.071 3118.34 559.244C3110.08 565.495 3101.81 570.319 3093.56 573.708C3082.9 578.085 3069.77 580.27 3054.17 580.27C3037.8 580.27 3023.72 577.328 3011.92 571.42C3000.12 565.527 2991.09 557.06 2984.81 546.017C2982.1 541.265 2979.98 536.13 2978.44 530.605H3193.7C3199.07 530.605 3203.53 526.491 3203.97 521.141C3204.08 519.761 3204.2 518.35 3204.31 516.907C3204.68 511.964 3204.88 507.586 3204.88 503.775C3204.88 469.522 3197.36 440.508 3182.33 416.716V416.724ZM2976.72 473.525C2977.96 466.15 2980.09 459.396 2983.09 453.257C2988.23 442.796 2995.75 434.704 3005.65 428.995C3015.53 423.286 3027.14 420.432 3040.47 420.432C3053.79 420.432 3064.63 423.286 3074.15 428.995C3083.66 434.704 3091.18 442.796 3096.7 453.257C3099.96 459.452 3102.19 466.206 3103.39 473.525H2976.72Z" fill="#34B298"/>
<path d="M3367.57 663.051C3341.31 663.051 3315.71 659.998 3290.79 653.914C3274.04 649.832 3259.49 645.048 3247.13 639.586C3237.69 635.416 3233.44 624.382 3237.53 614.909L3254.53 575.45C3258.71 565.739 3270.04 561.378 3279.66 565.755C3290.16 570.523 3301.57 574.605 3313.91 577.986C3333.32 583.32 3352.35 585.975 3371 585.975C3389.65 585.975 3401.92 583.974 3408.96 579.979C3416 575.984 3419.52 570.563 3419.52 563.706C3419.52 557.997 3416.28 553.628 3409.82 550.574C3403.34 547.536 3394.59 545.343 3383.56 544.012C3372.51 542.68 3360.62 541.158 3347.88 539.443C3335.12 537.729 3322.09 535.074 3308.77 531.454C3295.44 527.842 3283.36 522.803 3272.51 516.329C3261.67 509.863 3253 500.917 3246.54 489.499C3240.06 478.082 3236.83 463.627 3236.83 446.109C3236.83 426.328 3242.63 408.715 3254.25 393.303C3265.86 377.891 3282.79 365.612 3305.05 356.483C3327.31 347.354 3354.8 342.785 3387.54 342.785C3409.24 342.785 3431.21 345.065 3453.48 349.634C3467.98 352.608 3481 356.475 3492.51 361.227C3502.23 365.238 3506.67 376.544 3502.44 386.175L3485.28 425.323C3481.05 434.955 3469.78 439.237 3460.19 434.907C3450.59 430.578 3441.05 427.476 3431.49 425.563C3416.26 422.525 3401.99 420.994 3388.67 420.994C3370.41 420.994 3357.36 422.995 3349.57 426.99C3341.76 430.984 3337.86 436.031 3337.86 442.115C3337.86 448.198 3341.29 452.871 3348.14 456.1C3354.99 459.337 3363.74 461.809 3374.4 463.523C3385.05 465.237 3396.95 466.951 3410.08 468.658C3423.21 470.372 3436.24 472.939 3449.19 476.368C3462.12 479.796 3473.92 484.843 3484.58 491.493C3495.24 498.158 3503.89 507.104 3510.56 518.322C3517.22 529.549 3520.55 544.108 3520.55 561.992C3520.55 579.875 3514.84 597.584 3503.42 612.797C3492.01 628.025 3474.88 640.2 3452.04 649.33C3429.21 658.467 3401.04 663.027 3367.55 663.027L3367.57 663.051Z" fill="#34B298"/>
<path d="M3739.21 637.218V275.204C3739.21 265.867 3746.78 258.301 3756.11 258.301H3835.34C3844.68 258.301 3852.25 265.867 3852.25 275.204V555.485C3852.25 562.557 3857.98 568.29 3865.05 568.29H4025.45C4034.78 568.29 4042.35 575.856 4042.35 585.193V641.021C4042.35 650.357 4034.78 657.924 4025.45 657.924H3759.91C3748.48 657.924 3739.21 648.659 3739.21 637.226V637.218Z" fill="#34B298"/>
<path d="M4334.34 377.616C4306.74 354.406 4267.83 342.797 4217.59 342.797C4193.23 342.797 4168.78 346.034 4144.24 352.5C4126.32 357.228 4110.27 363.272 4096.09 370.631C4087.58 375.048 4084.17 385.461 4088.4 394.056L4108.68 435.254C4113.03 444.096 4123.76 447.588 4132.55 443.139C4139.69 439.527 4147.59 436.338 4156.22 433.563C4171.63 428.62 4186.77 426.14 4201.61 426.14C4224.44 426.14 4241.09 430.805 4251.56 440.125C4261.08 448.617 4266.27 460.313 4267.14 475.239H4205.61C4174.01 475.239 4148.03 478.947 4127.68 486.37C4107.32 493.793 4092.29 504.549 4082.58 518.621C4072.88 532.71 4068.02 549.262 4068.02 568.294C4068.02 585.803 4072.5 601.789 4081.44 616.245C4090.38 630.716 4103.5 642.134 4120.83 650.497C4138.15 658.861 4158.98 663.055 4183.34 663.055C4210.36 663.055 4232.15 657.633 4248.7 646.79C4259.8 639.518 4268.46 629.903 4274.68 617.935V640.3C4274.68 650.035 4282.57 657.92 4292.3 657.92H4358.11C4367.85 657.92 4375.73 650.027 4375.73 640.3V486.083C4375.73 436.992 4361.93 400.834 4334.34 377.616ZM4246.42 585.699C4236.72 591.608 4225.77 594.55 4213.6 594.55C4201.42 594.55 4191.14 591.608 4183.91 585.699C4176.68 579.807 4173.06 572.289 4173.06 563.151C4173.06 553.265 4176.58 545.65 4183.63 540.316C4190.67 534.99 4202.94 532.327 4220.45 532.327H4267.27V558.583C4263.07 570.774 4256.13 579.807 4246.42 585.699Z" fill="#34B298"/>
<path d="M4773.63 480.948V640.443C4773.63 650.099 4765.81 657.92 4756.15 657.92H4682.07C4672.41 657.92 4664.59 650.099 4664.59 640.443V498.64C4664.59 476.579 4660.12 460.497 4651.18 450.403C4642.23 440.325 4630.14 435.278 4614.92 435.278C4603.12 435.278 4592.46 437.845 4582.96 442.98C4573.44 448.122 4566.02 456.024 4560.69 466.676C4555.36 477.336 4552.7 491.417 4552.7 508.918V640.443C4552.7 650.099 4544.88 657.92 4535.22 657.92H4461.71C4452.06 657.92 4444.23 650.099 4444.23 640.443V365.409C4444.23 355.753 4452.06 347.932 4461.71 347.932H4530.66C4540.31 347.932 4548.13 355.753 4548.13 365.409V381.993C4556.32 373.374 4565.65 366.11 4576.1 360.202C4596.66 348.601 4619.87 342.797 4645.76 342.797C4669.73 342.797 4691.43 347.748 4710.83 357.635C4730.24 367.538 4745.56 382.567 4756.79 402.739C4768.01 422.911 4773.63 448.976 4773.63 480.948Z" fill="#34B298"/>
<path d="M5075.04 362.854V385.489C5066.88 374.319 5056.99 365.413 5045.36 358.763C5026.7 348.119 5004.05 342.785 4977.42 342.785C4950.78 342.785 4925.37 348.877 4902.35 361.052C4879.31 373.235 4860.86 390.552 4846.97 412.997C4833.08 435.457 4826.13 461.912 4826.13 492.354C4826.13 522.795 4833.08 549.155 4846.97 571.416C4860.86 593.685 4879.31 611.003 4902.35 623.369C4925.37 635.743 4950.39 641.923 4977.42 641.923C5004.44 641.923 5026.7 636.596 5045.36 625.936C5054.4 620.77 5062.39 614.232 5069.33 606.33V615.659C5069.33 640.025 5062.95 658.57 5050.2 671.32C5037.45 684.069 5016.61 690.447 4987.69 690.447C4969.04 690.447 4950.11 687.497 4930.89 681.597C4917.65 677.531 4905.9 672.524 4895.63 666.56C4888.31 662.302 4878.91 665.077 4874.98 672.587L4849.55 721.224C4845.88 728.232 4848.3 736.931 4855.11 740.949C4871.33 750.525 4890.21 758.052 4911.76 763.513C4938.79 770.362 4967.14 773.791 4996.83 773.791C5054.68 773.791 5099.3 759.702 5130.7 731.541C5162.1 703.372 5177.8 659.99 5177.8 601.379V362.846C5177.8 354.601 5171.12 347.912 5162.86 347.912H5089.96C5081.72 347.912 5075.03 354.593 5075.03 362.846L5075.04 362.854ZM5062.19 525.474C5056.29 534.986 5048.39 542.409 5038.5 547.735C5028.6 553.07 5016.99 555.725 5003.68 555.725C4990.36 555.725 4979.22 553.07 4969.14 547.735C4959.05 542.409 4950.96 534.986 4944.88 525.474C4938.79 515.962 4935.75 504.92 4935.75 492.362C4935.75 479.804 4938.79 468.769 4944.88 459.249C4950.96 449.737 4959.05 442.41 4969.14 437.267C4979.22 432.133 4990.74 429.565 5003.68 429.565C5016.62 429.565 5028.6 432.133 5038.5 437.267C5048.39 442.41 5056.29 449.737 5062.19 459.249C5068.09 468.769 5071.04 479.804 5071.04 492.362C5071.04 504.92 5068.09 515.962 5062.19 525.474Z" fill="#34B298"/>
<path d="M5572.83 363.772V642.068C5572.83 650.822 5565.74 657.918 5556.98 657.918H5485.92C5477.16 657.918 5470.07 650.822 5470.07 642.068V625.101C5462.33 633.584 5453.48 640.617 5443.53 646.214C5423.54 657.448 5401.75 663.053 5378.16 663.053C5353.04 663.053 5330.49 658.102 5310.51 648.215C5290.53 638.32 5274.92 622.805 5263.7 601.684C5252.46 580.563 5246.86 553.645 5246.86 520.908V363.78C5246.86 355.026 5253.96 347.93 5262.71 347.93H5339.48C5348.24 347.93 5355.33 355.026 5355.33 363.78V503.207C5355.33 527.182 5359.8 544.412 5368.74 554.873C5377.68 565.342 5390.34 570.572 5406.71 570.572C5417.36 570.572 5427.16 568.101 5436.11 563.149C5445.05 558.206 5452 550.305 5456.94 539.461C5461.89 528.61 5464.37 514.824 5464.37 498.072V363.78C5464.37 355.026 5471.46 347.93 5480.22 347.93H5556.99C5565.75 347.93 5572.84 355.026 5572.84 363.78L5572.83 363.772Z" fill="#34B298"/>
<path d="M5936.76 416.724C5921.73 392.94 5901.74 374.674 5876.82 361.917C5851.89 349.175 5824.21 342.797 5793.76 342.797C5761.03 342.797 5731.82 349.646 5706.13 363.344C5680.44 377.05 5660.26 395.986 5645.61 420.145C5630.96 444.319 5623.64 472.01 5623.64 503.209C5623.64 534.408 5631.15 560.967 5646.19 585.133C5661.22 609.308 5682.34 628.332 5709.55 642.221C5736.76 656.118 5768.82 663.055 5805.75 663.055C5835.05 663.055 5860.56 658.774 5882.24 650.21C5900.51 643.003 5916.2 633.164 5929.34 620.702C5933.44 616.811 5933.57 610.313 5929.7 606.206L5886.5 560.385C5882.89 556.55 5876.97 556.079 5872.77 559.252C5864.51 565.503 5856.24 570.327 5847.99 573.716C5837.33 578.093 5824.21 580.278 5808.6 580.278C5792.23 580.278 5778.15 577.336 5766.36 571.427C5754.56 565.535 5745.52 557.068 5739.24 546.025C5736.54 541.273 5734.41 536.138 5732.88 530.613H5948.14C5953.51 530.613 5957.97 526.499 5958.41 521.149C5958.52 519.769 5958.63 518.358 5958.74 516.915C5959.12 511.972 5959.31 507.594 5959.31 503.783C5959.31 469.53 5951.79 440.516 5936.76 416.724ZM5731.15 473.525C5732.39 466.15 5734.52 459.396 5737.53 453.257C5742.66 442.796 5750.17 434.704 5760.08 428.995C5769.97 423.286 5781.57 420.432 5794.9 420.432C5808.24 420.432 5819.06 423.286 5828.58 428.995C5838.09 434.704 5845.61 442.796 5851.13 453.257C5854.39 459.452 5856.62 466.206 5857.82 473.525H5731.15Z" fill="#34B298"/>
<path d="M6122.01 663.051C6095.75 663.051 6070.16 659.998 6045.23 653.914C6028.49 649.832 6013.94 645.048 6001.57 639.586C5992.14 635.416 5987.89 624.382 5991.97 614.909L6008.97 575.45C6013.16 565.739 6024.49 561.378 6034.11 565.755C6044.6 570.523 6056.02 574.605 6068.35 577.986C6087.76 583.32 6106.79 585.975 6125.44 585.975C6144.09 585.975 6156.36 583.974 6163.4 579.979C6170.44 575.984 6173.97 570.563 6173.97 563.706C6173.97 557.997 6170.73 553.628 6164.26 550.574C6157.79 547.536 6149.04 545.343 6138 544.012C6126.96 542.68 6115.07 541.158 6102.32 539.443C6089.56 537.729 6076.53 535.074 6063.21 531.454C6049.89 527.842 6037.81 522.803 6026.96 516.329C6016.11 509.863 6007.45 500.917 6000.98 489.499C5994.51 478.082 5991.28 463.627 5991.28 446.109C5991.28 426.328 5997.07 408.715 6008.69 393.303C6020.3 377.891 6037.24 365.612 6059.5 356.483C6081.76 347.354 6109.25 342.785 6141.99 342.785C6163.68 342.785 6185.66 345.065 6207.92 349.634C6222.43 352.608 6235.44 356.475 6246.95 361.227C6256.67 365.238 6261.11 376.544 6256.89 386.175L6239.72 425.323C6235.5 434.955 6224.22 439.237 6214.63 434.907C6205.06 430.594 6195.49 427.476 6185.94 425.563C6170.71 422.525 6156.43 420.994 6143.12 420.994C6124.85 420.994 6111.81 422.995 6104.01 426.99C6096.21 430.984 6092.31 436.031 6092.31 442.115C6092.31 448.198 6095.73 452.871 6102.58 456.1C6109.43 459.337 6118.19 461.809 6128.85 463.523C6139.5 465.237 6151.4 466.951 6164.53 468.658C6177.66 470.372 6190.69 472.939 6203.64 476.368C6216.57 479.796 6228.37 484.843 6239.03 491.493C6249.68 498.158 6258.34 507.104 6265 518.322C6271.66 529.549 6275 544.108 6275 561.992C6275 579.875 6269.29 597.584 6257.87 612.797C6246.45 628.025 6229.32 640.2 6206.49 649.33C6183.65 658.467 6155.49 663.027 6122 663.027L6122.01 663.051Z" fill="#34B298"/>
<path d="M777.059 774.512C735.431 816.14 686.946 848.83 632.944 871.665C576.996 895.322 517.612 907.321 456.426 907.321C395.24 907.321 335.84 895.322 279.908 871.665C225.906 848.83 177.421 816.14 135.793 774.512C94.1652 732.884 61.4752 684.399 38.6401 630.397C14.9996 574.457 3 515.073 3 453.887C3 341.019 44.7316 232.847 120.509 149.312C132.947 135.606 146.118 122.738 159.968 110.754V253.306C159.968 255.985 159.17 258.6 157.719 260.849C120.732 317.985 100.807 384.816 100.807 453.895C100.807 649.987 260.342 809.522 456.434 809.522C551.418 809.522 640.734 772.543 707.908 705.369C726.996 686.265 757.955 686.265 777.059 705.369C796.147 724.457 796.147 755.416 777.059 774.52V774.512Z" fill="#34B298"/>
<path d="M751.115 172.482C733.957 193.332 703.14 196.322 682.291 179.156C618.912 126.979 538.702 98.252 456.443 98.252C448.565 98.252 440.6 98.5151 432.77 99.0254L428.664 99.2965V1.29031C437.881 0.732186 447.21 0.453125 456.443 0.453125C509.911 0.453125 562.27 9.67011 612.071 27.8808C660.205 45.4617 704.735 70.9519 744.457 103.65C765.307 120.824 768.297 151.64 751.123 172.49L751.115 172.482Z" fill="#34B298"/>
<path d="M594 609.454V609.565C594 624.991 586.84 638.75 575.664 647.7C574.69 648.441 573.708 649.175 572.71 649.901C572.678 649.925 572.639 649.949 572.599 649.981C556.522 661.746 537.595 672.737 519.482 679.469C379.069 733.308 229.427 619.009 238.383 468.737C238.192 464.957 238.088 461.136 238.088 457.284V54.9076C238.088 49.7151 240.97 44.9533 245.591 42.5923C273.618 28.1873 302.994 16.7015 333.065 8.39032C339.778 6.53187 346.42 11.5409 346.42 18.5121V473.076C346.42 535.012 396.255 585.222 458.24 585.222C479.729 585.222 499.797 579.184 516.856 568.727C523.729 564.516 531.472 561.844 539.487 561.006C539.543 561.006 539.599 560.998 539.647 560.99C540.197 560.926 544.236 560.687 545.075 560.687C572.048 560.687 593.928 582.51 593.992 609.454H594Z" fill="#FDC30A"/>
</g>
<defs>
<clipPath id="clip0_2934_14583">
<rect width="6275" height="907" fill="white"/>
</clipPath>
</defs>
</svg>
